<?xml version="1.0" encoding="utf-8"?>
<!-- Generator: Adobe Illustrator 27.6.1, SVG Export Plug-In . SVG Version: 6.00 Build 0)  -->
<svg version="1.1" id="Layer_1" xmlns="http://www.w3.org/2000/svg" xmlns:xlink="http://www.w3.org/1999/xlink" x="0px" y="0px"
	 viewBox="0 0 933.64 1200" style="enable-background:new 0 0 933.64 1200;" xml:space="preserve">
<style type="text/css">
	.st0{clip-path:url(#SVGID_00000086667760134848334250000008099956830334943650_);}
	.st1{fill:url(#SVGID_00000044141899216085632490000008636463846154890626_);}
	
		.st2{clip-path:url(#SVGID_00000033369310838964333540000003982367605504919975_);fill:url(#SVGID_00000067941613169158131860000012389742170469599163_);}
</style>
<g>
	<defs>
		<rect id="SVGID_1_" x="-23.21" y="-23.84" width="983.49" height="1238.55"/>
	</defs>
	<clipPath id="SVGID_00000135659554577670204530000002581751524436043921_">
		<use xlink:href="#SVGID_1_"  style="overflow:visible;"/>
	</clipPath>
	<g style="clip-path:url(#SVGID_00000135659554577670204530000002581751524436043921_);">
		
			<radialGradient id="SVGID_00000129893100366608599550000011022865378383325338_" cx="423.2229" cy="338.464" r="1157.5043" gradientUnits="userSpaceOnUse">
			<stop  offset="0" style="stop-color:#011673"/>
			<stop  offset="0.1289" style="stop-color:#011366"/>
			<stop  offset="0.7143" style="stop-color:#000832"/>
			<stop  offset="1" style="stop-color:#00041D"/>
		</radialGradient>
		
			<rect x="-450.03" y="-11.23" style="fill:url(#SVGID_00000129893100366608599550000011022865378383325338_);" width="1833.7" height="1222.47"/>
		<g>
			<defs>
				
					<rect id="SVGID_00000015323933092539827050000015025535544156801960_" x="-450.03" y="-11.23" width="1833.7" height="1222.47"/>
			</defs>
			<clipPath id="SVGID_00000096047417855179036310000014717413824500527798_">
				<use xlink:href="#SVGID_00000015323933092539827050000015025535544156801960_"  style="overflow:visible;"/>
			</clipPath>
			
				<radialGradient id="SVGID_00000044893976790714056540000014981921304954485423_" cx="485.1551" cy="328.3186" r="660.3325" gradientTransform="matrix(1 0 0 0.7314 0 88.1877)" gradientUnits="userSpaceOnUse">
				<stop  offset="1.562500e-03" style="stop-color:#0039C7"/>
				<stop  offset="0.1073" style="stop-color:#0032B0;stop-opacity:0.8941"/>
				<stop  offset="0.4181" style="stop-color:#001E71;stop-opacity:0.5828"/>
				<stop  offset="0.6812" style="stop-color:#001044;stop-opacity:0.3193"/>
				<stop  offset="0.8833" style="stop-color:#000727;stop-opacity:0.1169"/>
				<stop  offset="1" style="stop-color:#00041D;stop-opacity:0"/>
			</radialGradient>
			
				<path style="clip-path:url(#SVGID_00000096047417855179036310000014717413824500527798_);fill:url(#SVGID_00000044893976790714056540000014981921304954485423_);" d="
				M357.94-201.19l109.22,954.5l-32.47-960L357.94-201.19z M-115.26,1.38l582.42,751.93L-53.37-45.56L-115.26,1.38z M-8.64-74.7
				l475.8,828.02L59.02-112.18L-8.64-74.7z M230.3-176.98l236.86,930.29L305.47-193.54L230.3-176.98z M107.28-134.54l359.87,887.85
				L179.44-161.83L107.28-134.54z M-210.45,92.2l677.61,661.11L-155.56,36.74L-210.45,92.2z M-459.52,697.07l926.68,56.24
				l-919.54-135.54L-459.52,697.07z M-443.76,563.73l910.92,189.59L-426,486.3L-443.76,563.73z M-292.34,195.97l759.5,557.34
				l-712.69-620.26L-292.34,195.97z M-410.17,434.06l877.33,319.26l-849.27-393.23L-410.17,434.06z M-359.35,310.68l826.51,442.63
				l-788.7-511.76L-359.35,310.68z M1311.54,361.28L467.16,753.31l873.38-318L1311.54,361.28z M1249.5,242.67L467.16,753.31
				l821.02-441.45L1249.5,242.67z M1385.03,619.11l-917.87,134.2l926-54.91L1385.03,619.11z M1357.01,487.59L467.16,753.31
				l908.6-188.28L1357.01,487.59z M1172.15,134.05L467.16,753.31l752.59-556.25L1172.15,134.05z M487.7-206.65l-20.54,959.96
				l97.38-954.35L487.7-206.65z M617.09-193.33L467.16,753.31l225.3-929.96L617.09-193.33z M743.52-161.45L467.16,753.31
				l348.83-887.34L743.52-161.45z M977.77-44.84L467.16,753.31L1040.22,2.2L977.77-44.84z M1080.99,37.6L467.16,753.31
				l669.39-660.15L1080.99,37.6z M864.53-111.59l-397.37,864.9L932.68-74.02L864.53-111.59z"/>
		</g>
	</g>
</g>
</svg>
